<svg
        viewBox="570 660 620 960"
        xmlns="http://www.w3.org/2000/svg"
        className="w-full h-full opacity-100"
      >
        {/* Geometric Cat Head - Core Laboratory Aesthetic */}
        <path fill="var(--brand-primary)" opacity="1.000000" d=" M946.164673,1513.258545   C959.389282,1510.506714 972.725281,1508.191650 985.801453,1504.857300   C995.351196,1502.422241 1004.629456,1498.836426 1013.895935,1495.405029   C1020.960266,1492.788940 1027.944580,1489.875488 1034.723267,1486.595825   C1039.935547,1484.073975 1044.772339,1480.776123 1050.081299,1477.495117   C1050.591797,1477.156494 1050.797119,1477.146240 1051.002563,1477.135986   C1051.002563,1477.135986 1050.882080,1477.106689 1051.255371,1477.093628   C1053.695679,1475.897461 1055.762451,1474.714233 1057.829346,1473.531006   C1057.640625,1473.108154 1057.451904,1472.685181 1057.263184,1472.262329   C1052.304932,1473.798584 1047.346558,1475.334839 1042.388306,1476.871094   C1042.269165,1477.047485 1042.150024,1477.223999 1041.793701,1477.545898   C1041.556396,1477.691406 1041.743530,1477.622192 1041.743530,1477.622314   C1026.487915,1480.743408 1011.232300,1483.864380 995.223877,1486.861572   C992.812866,1486.848022 991.141418,1486.860229 989.498596,1487.083252   C963.553223,1490.605103 937.490784,1491.815674 911.326538,1491.179321   C909.562073,1491.136475 907.785767,1491.580688 906.014954,1491.798340   C899.650391,1491.504761 893.285828,1491.211426 886.209229,1490.587158   C874.118652,1489.106445 862.740051,1487.956543 851.361511,1486.806641   C842.024353,1485.435547 832.613647,1484.434326 823.369141,1482.596802   C812.562012,1480.448608 801.914795,1477.505615 791.167297,1475.042114   C786.790161,1474.038818 784.664734,1471.690674 783.890869,1467.093628   C782.546265,1459.106445 780.318604,1451.272217 778.699829,1443.325317   C777.599854,1437.925659 776.907166,1432.442993 776.402710,1426.263428   C777.551575,1405.577271 778.330078,1385.625000 779.108521,1365.672729   C779.108521,1365.672729 779.008728,1365.349609 779.271973,1364.884277   C781.368835,1356.892334 783.202454,1349.365601 785.036011,1341.838867   C789.834595,1329.866089 793.840393,1317.489502 799.672546,1306.043335   C804.694885,1296.186523 811.464539,1287.144287 818.059631,1278.181763   C828.679199,1263.750122 840.686096,1250.556641 854.465576,1238.968750   C864.134338,1230.837891 873.158875,1221.944336 882.751465,1213.718262   C890.749695,1206.859253 899.240845,1200.578003 907.348633,1193.842285   C912.155640,1189.848633 916.651978,1185.480225 921.270142,1181.260620   C924.527222,1178.284546 927.754028,1175.275391 931.271851,1171.762817   C932.006653,1170.828369 932.463867,1170.411987 932.921143,1169.995728   C933.099243,1169.682007 933.277283,1169.368408 933.995483,1168.846436   C935.026978,1168.056152 935.518250,1167.474243 936.009521,1166.892212   C936.009521,1166.892212 936.005249,1166.992798 936.282837,1166.997070   C936.699890,1166.629395 936.839355,1166.257568 936.978882,1165.885742   C936.978882,1165.885742 936.973938,1165.966919 937.282349,1166.062500   C942.565002,1160.903687 947.539307,1155.649536 952.513611,1150.395264   C952.126526,1149.907104 951.739441,1149.418945 951.352295,1148.930786   C943.806458,1152.892822 936.260559,1156.854980 928.714661,1160.817017   C928.714661,1160.817017 928.491455,1160.983032 927.987305,1160.972656   C926.312988,1161.679077 925.142822,1162.395874 923.972656,1163.112671   C923.972656,1163.112671 923.985779,1163.002197 923.667664,1162.985596   C918.601990,1165.640991 913.854431,1168.313232 909.106934,1170.985474   C908.343994,1171.552856 907.581055,1172.120239 906.184082,1172.771484   C904.441223,1173.541992 903.332458,1174.228638 902.223694,1174.915283   C892.797180,1180.809937 883.043762,1186.248901 874.027527,1192.715576   C862.933411,1200.672485 852.335205,1209.341064 841.751953,1217.982666   C834.987671,1223.505981 828.367371,1229.262939 822.157837,1235.396240   C808.193054,1249.189697 796.157288,1264.639648 786.399719,1281.620361   C779.819214,1293.072021 774.704529,1305.365967 768.598877,1317.822388   C767.119019,1319.956055 765.974487,1321.550537 764.829956,1323.145020   C764.363281,1323.100464 763.896606,1323.056030 763.429993,1323.011597   C762.662537,1319.074585 762.013000,1315.110229 761.103088,1311.206543   C759.209534,1303.083130 757.178101,1294.991699 755.203308,1286.887207   C751.807861,1276.626709 749.044128,1266.100708 744.870544,1256.167114   C738.438965,1240.859375 731.041260,1225.957520 724.030273,1210.175659   C723.705322,1209.127808 723.403564,1208.787842 723.101807,1208.447998   C723.101746,1208.447998 723.014648,1208.483887 722.973877,1208.113281   C722.579285,1207.499146 722.225464,1207.255493 721.871582,1207.011841   C721.871582,1207.011841 721.943970,1207.023926 722.130066,1206.724121   C721.501953,1205.287842 720.687744,1204.151367 719.873535,1203.014893   C719.873535,1203.014893 719.945007,1203.023071 720.128479,1202.720947   C719.498657,1201.284180 718.685364,1200.149658 717.872070,1199.015015   C717.872070,1199.015015 717.948608,1199.022827 718.116943,1198.700684   C716.827942,1195.580688 715.370605,1192.782715 713.913330,1189.984741   C713.913330,1189.984741 714.019653,1189.873901 713.837402,1189.957764   C713.516785,1189.762817 713.371216,1189.487671 713.218506,1189.216309   C710.044922,1178.930786 706.832764,1168.656738 703.736511,1158.347900   C703.233154,1156.672241 703.242981,1154.842163 703.102600,1152.210693   C700.438721,1132.845581 699.960510,1114.356323 703.119385,1095.849487   C703.390991,1094.258667 703.056091,1092.564453 703.002930,1090.918213   C706.120972,1078.691772 708.520386,1066.221680 712.559021,1054.307251   C716.602783,1042.377930 722.074097,1030.908569 727.294617,1019.407715   C735.878174,1000.498413 744.764404,981.726440 753.862244,962.167297   C750.422546,961.270386 748.052246,960.455994 745.613953,960.047791   C727.367859,956.993347 710.984131,949.459900 699.209351,935.350891   C688.661011,922.711365 679.092590,908.708313 680.062256,889.917725   C680.397949,889.123291 680.733521,889.104187 681.069031,889.085083   C681.069031,889.085083 680.968445,889.150757 681.208679,888.831116   C681.939941,885.117432 682.775391,881.731628 682.857361,878.327698   C683.103088,868.120117 683.054688,857.905457 683.121033,847.693542   C683.121033,847.693542 683.025208,847.426208 683.332153,847.100403   C684.162109,846.504517 684.685059,846.234497 685.503296,846.290527   C688.504883,850.981934 690.994812,855.505249 694.013184,859.643005   C695.428101,861.582764 698.074158,863.499207 700.173401,860.300415   C705.073608,852.833435 706.588074,844.639587 703.936890,836.007385   C701.098267,826.765137 693.323059,823.395508 685.029236,820.794434   C689.238586,804.839783 697.285950,791.059021 708.455566,778.982910   C709.295288,778.075073 709.659058,776.020203 709.276306,774.802734   C706.668457,766.507141 703.801086,758.293091 701.108704,749.251160   C699.091553,741.968628 696.983215,735.487671 694.874878,729.006714   C694.874817,729.006714 694.919983,728.864197 694.727722,729.076721   C694.452454,728.927856 694.369446,728.566406 694.286438,728.205017   C690.922241,716.018799 687.549194,703.835083 684.214600,691.640747   C684.001892,690.862976 684.087402,690.003662 684.156738,688.338379   C683.195129,681.470581 681.928162,675.469543 681.170898,669.404785   C681.006409,668.087769 682.670288,666.542419 683.492065,665.102234   C694.257935,672.073608 705.078064,678.962830 715.775269,686.037842   C728.118713,694.201660 740.497498,702.325562 752.590027,710.851074   C762.064636,717.531128 771.139771,724.779175 780.354126,731.824951   C781.438843,732.654480 782.280273,733.802063 783.771606,735.247864   C785.089294,735.903320 785.875671,736.314941 786.649536,736.292786   C799.369507,735.928894 812.089050,735.542297 824.804443,735.048401   C825.923523,735.004944 827.012207,734.178833 828.115051,733.716248   C835.060303,724.345947 841.912354,714.904602 848.985291,705.631653   C853.335876,699.927856 857.914307,694.387329 862.589233,688.944275   C867.931091,682.724609 873.380554,676.587769 879.006592,670.625732   C881.931641,667.526062 885.262756,664.789978 888.551514,662.059448   C891.029175,660.002441 893.643188,660.455383 895.368347,663.009399   C900.436646,670.512329 906.022827,677.791809 910.062195,685.833862   C916.149902,697.953918 921.447815,710.508484 926.422302,723.137939   C930.453918,733.373474 933.591797,743.966431 936.985413,754.446472   C940.581970,765.553162 944.403625,776.609436 947.405090,787.880005   C950.392578,799.097900 952.483704,810.554565 954.870300,822.688354   C954.825684,840.717224 954.878662,857.964355 954.931641,875.211426   C954.947632,875.405762 954.963623,875.600098 954.810303,876.425049   C952.771179,890.511841 951.779785,903.964905 954.779785,917.404236   C957.609802,925.141846 959.769043,933.211426 963.401428,940.551941   C972.600403,959.141418 986.065308,974.277893 1002.384338,987.103821   C1009.606689,992.780090 1015.851074,999.690613 1022.653259,1005.916443   C1025.315186,1008.352722 1028.289429,1010.447815 1031.534668,1013.235962   C1033.331909,1014.848389 1034.715820,1015.923096 1036.099854,1016.997803   C1036.099854,1016.997803 1035.997803,1016.999268 1036.033447,1017.250488   C1036.414062,1017.668579 1036.759033,1017.835510 1037.103882,1018.002441   C1037.103882,1018.002441 1036.999634,1018.001831 1037.027466,1018.256592   C1037.405151,1018.674011 1037.754883,1018.836609 1038.104736,1018.999207   C1038.104736,1018.999207 1037.999756,1018.999756 1038.028198,1019.252808   C1038.405273,1019.671265 1038.754028,1019.836731 1039.102661,1020.002197   C1039.102661,1020.002197 1038.997681,1020.002014 1039.030884,1020.250549   C1039.407837,1020.667969 1039.751709,1020.836792 1040.095459,1021.005676   C1040.095459,1021.005676 1039.983398,1021.012695 1040.074463,1021.222046   C1040.473877,1021.628418 1040.782349,1021.825500 1041.090942,1022.022583   C1041.090942,1022.022522 1040.971802,1022.028809 1041.094971,1022.209229   C1041.507202,1022.603943 1041.796021,1022.818237 1042.084961,1023.032471   C1042.084961,1023.032471 1041.968994,1023.033875 1042.141113,1023.263184   C1049.167114,1030.258789 1056.020874,1037.025269 1062.874634,1043.791626   C1062.874634,1043.791626 1063.141235,1043.814819 1063.291748,1044.176758   C1063.985107,1045.046021 1064.528076,1045.553223 1065.071045,1046.060425   C1065.071045,1046.060425 1064.943848,1046.074463 1065.183960,1046.128174   C1065.631592,1046.477783 1065.839111,1046.773682 1066.046631,1047.069702   C1066.046631,1047.069702 1065.930908,1047.068970 1066.171875,1047.137207   C1066.626953,1047.495361 1066.840820,1047.785400 1067.054810,1048.075317   C1067.054810,1048.075317 1066.932739,1048.044556 1067.094238,1048.207031   C1067.531128,1048.592896 1067.806763,1048.816406 1068.082275,1049.039795   C1068.082275,1049.039795 1067.961426,1049.038086 1068.103394,1049.208740   C1068.527954,1049.599731 1068.810425,1049.819824 1069.093018,1050.039917   C1069.093018,1050.039917 1068.976318,1050.024658 1069.031250,1050.228027   C1069.317017,1050.694092 1069.547974,1050.956787 1069.778931,1051.219482   C1075.536621,1057.687744 1081.488770,1063.995239 1087.004883,1070.663330   C1094.624390,1079.874634 1102.525635,1088.944824 1109.205933,1098.819824   C1119.632080,1114.231934 1129.588501,1130.007568 1138.876099,1146.129150   C1145.479980,1157.592529 1151.359253,1169.595581 1156.298218,1181.866577   C1163.106812,1198.783081 1169.475220,1215.958862 1174.607788,1233.441650   C1178.526733,1246.790527 1180.234985,1260.788330 1182.861572,1275.262573   C1182.870483,1277.680908 1182.796631,1279.356323 1183.040527,1280.984131   C1186.658081,1305.121948 1187.510864,1329.373779 1186.147827,1353.722900   C1185.748535,1360.854248 1185.373779,1367.986816 1184.987793,1375.118896   C1182.222290,1390.951172 1179.980103,1406.897705 1176.555054,1422.586060   C1172.512085,1441.104736 1165.664185,1458.739136 1157.031494,1475.644897   C1147.778564,1493.765137 1136.777344,1510.547241 1123.031982,1525.775391   C1109.307129,1540.980835 1093.960083,1554.140625 1076.650635,1564.577026   C1061.208496,1573.887573 1044.780884,1581.850342 1028.094727,1588.724854   C1013.255554,1594.838379 997.518311,1598.823853 982.067505,1603.375366   C976.188110,1605.107300 970.002197,1605.798462 963.212952,1606.857178   C960.655029,1606.974243 958.827698,1607.125122 957.026978,1607.432251   C908.769409,1615.664917 860.328918,1616.857544 811.699524,1611.326538   C806.112427,1610.691040 800.484070,1610.419189 794.874817,1609.978882   C783.106567,1608.251587 771.124023,1607.403931 759.617371,1604.602295   C739.480408,1599.698975 719.271973,1594.626587 699.758179,1587.741211   C673.760620,1578.567871 649.186157,1566.407471 627.232239,1549.052368   C608.515808,1534.256592 593.446045,1517.039917 583.691895,1495.252808   C582.768555,1493.190308 581.923462,1491.092896 581.114868,1488.225830   C580.750610,1485.836548 580.365051,1484.216797 579.868713,1482.631836   C572.265137,1458.353027 570.340393,1433.672974 574.791138,1408.584229   C576.036621,1401.563477 577.671143,1394.611816 579.127075,1387.628418   C579.127075,1387.628418 579.036377,1387.174927 579.044434,1386.881470   C579.052490,1386.588013 579.093628,1386.300659 579.093628,1386.300659   C579.282288,1386.167114 579.470886,1386.033569 579.940613,1385.728394   C580.221680,1385.556641 580.219482,1385.587158 580.219482,1385.587158   C583.397034,1372.295288 588.935181,1360.049316 596.702454,1348.828247   C599.372620,1344.970703 602.058411,1341.052856 605.290710,1337.695557   C606.387634,1336.556274 609.185974,1337.054932 611.436279,1337.062744   C611.627014,1337.128784 611.596008,1336.942505 611.572815,1336.761475   C611.985840,1337.002930 612.398865,1337.244507 613.212646,1338.050171   C613.613342,1338.614380 613.596680,1338.515015 613.596680,1338.515015   C613.793884,1338.625977 613.991150,1338.736816 614.644775,1339.239624   C615.429688,1339.759277 615.758240,1339.887207 616.086792,1340.015015   C616.086792,1340.015015 615.971619,1340.028320 616.103271,1340.201782   C616.516113,1340.595825 616.797424,1340.816406 617.078674,1341.036987   C617.078674,1341.036987 616.965393,1341.033081 617.125671,1341.272095   C622.119629,1346.558594 626.953369,1351.606201 631.787048,1356.653687   C632.526611,1357.327148 633.266113,1358.000732 634.476929,1358.984863   C634.841064,1359.684082 634.733948,1360.072510 634.626831,1360.461060   C637.342102,1363.371704 640.555908,1365.963257 642.667419,1369.260498   C646.891541,1375.856934 650.769653,1382.708862 654.321106,1389.694092   C659.543518,1399.965942 663.653442,1410.867432 669.557556,1420.708618   C674.521484,1428.982788 681.041870,1436.415771 687.466309,1443.697998   C695.824768,1453.172485 705.553528,1461.221436 716.476624,1467.631470   C723.898621,1471.986938 731.932739,1475.349976 739.136169,1480.016602   C753.779236,1489.503052 770.247131,1494.654785 786.594482,1499.484131   C803.780823,1504.561523 821.672546,1507.250732 839.254089,1510.992310   C840.836304,1511.329102 842.404602,1511.731201 844.660278,1511.900635   C846.747986,1512.076538 848.132996,1512.624756 849.564697,1512.808472   C881.744202,1516.939575 913.944580,1517.442993 946.164673,1513.258545  M847.332031,737.782593   C843.379761,743.044678 839.427490,748.306824 835.037170,754.152161   C864.401367,767.621155 889.928650,784.384460 906.610046,812.635742   C908.475159,808.837219 910.108398,805.111389 910.874146,801.215027   C914.395752,783.297363 915.139526,765.261047 913.082764,747.069092   C910.827026,727.116333 906.748596,707.686523 897.668518,689.615173   C893.471924,681.263062 893.200439,680.936646 886.856750,688.635498   C873.639893,704.675720 860.789124,721.017639 847.332031,737.782593  M815.830994,857.305298   C820.674011,852.296204 825.593750,847.357971 830.320007,842.240967   C832.066345,840.350159 832.164795,838.199768 829.243774,837.145264   C820.352966,833.935120 811.639587,829.876709 802.481384,827.829895   C773.938599,821.450317 753.963806,835.339600 746.734314,864.208008   C746.474121,865.246948 746.701172,866.407959 746.701172,867.470398   C747.266479,867.586304 747.606628,867.756409 747.894714,867.692322   C748.366150,867.587463 748.968567,867.457520 749.230774,867.118042   C753.330200,861.807800 758.354675,863.461609 763.248413,865.382141   C782.072083,872.768982 799.383179,870.221802 815.830994,857.305298  z"/>
       
        
        {/* Precision Ear Accents */}
        <path fill="currentColor" opacity="1.000000" stroke="none" d=" M847.559937,737.509094   C860.789124,721.017639 873.639893,704.675720 886.856750,688.635498   C893.200439,680.936646 893.471924,681.263062 897.668518,689.615173   C906.748596,707.686523 910.827026,727.116333 913.082764,747.069092   C915.139526,765.261047 914.395752,783.297363 910.874146,801.215027   C910.108398,805.111389 908.475159,808.837219 906.610046,812.635742   C889.928650,784.384460 864.401367,767.621155 835.037170,754.152161   C839.427490,748.306824 843.379761,743.044678 847.559937,737.509094  z"/>
        

        {/* Laboratory Eyes */}
        <path fill="currentColor" opacity="1.000000" stroke="none" d=" M685.068970,820.806458   C693.323059,823.395508 701.098267,826.765137 703.936890,836.007385   C706.588074,844.639587 705.073608,852.833435 700.173401,860.300415   C698.074158,863.499207 695.428101,861.582764 694.013184,859.643005   C690.994812,855.505249 688.504883,850.981934 685.575317,845.977234   C685.263794,837.141479 679.945557,828.987488 685.153198,820.748291   C685.153198,820.748291 685.108704,820.818481 685.068970,820.806458  z"/>
        <path fill="currentColor" opacity="1.000000" stroke="none" d=" M815.545898,857.522339   C799.383179,870.221802 782.072083,872.768982 763.248413,865.382141   C758.354675,863.461609 753.330200,861.807800 749.230774,867.118042   C748.968567,867.457520 748.366150,867.587463 747.894714,867.692322   C747.606628,867.756409 747.266479,867.586304 746.701172,867.470398   C746.701172,866.407959 746.474121,865.246948 746.734314,864.208008   C753.963806,835.339600 773.938599,821.450317 802.481384,827.829895   C811.639587,829.876709 820.352966,833.935120 829.243774,837.145264   C832.164795,838.199768 832.066345,840.350159 830.320007,842.240967   C825.593750,847.357971 820.674011,852.296204 815.545898,857.522339  z"/>
        
      </svg>